<svg xmlns="http://www.w3.org/2000/svg" width="320" height="200" viewBox="0 0 320 200">
  <rect width="320" height="200" rx="16" fill="#0b1220"/>
  <rect x="18" y="16" width="284" height="168" rx="14" fill="#ffffff"/>
  <rect x="18" y="16" width="284" height="10" rx="14" fill="#1d4ed8"/>
  <rect x="36" y="40" width="140" height="12" rx="6" fill="#0f172a" opacity="0.92"/>
  <rect x="36" y="62" width="230" height="6" rx="3" fill="#64748b" opacity="0.55"/>
  <!-- columns -->
  <rect x="36" y="86" width="94" height="86" rx="10" fill="#eff6ff"/>
  <rect x="140" y="86" width="136" height="86" rx="10" fill="#ffffff"/>
  <rect x="46" y="98" width="70" height="6" rx="3" fill="#1e40af" opacity="0.7"/>
  <rect x="46" y="112" width="78" height="5" rx="3" fill="#94a3b8" opacity="0.6"/>
  <rect x="46" y="126" width="74" height="5" rx="3" fill="#94a3b8" opacity="0.55"/>
  <rect x="150" y="98" width="90" height="6" rx="3" fill="#0f172a" opacity="0.75"/>
  <rect x="150" y="114" width="120" height="5" rx="3" fill="#94a3b8" opacity="0.6"/>
  <rect x="150" y="128" width="110" height="5" rx="3" fill="#94a3b8" opacity="0.55"/>
  <rect x="150" y="142" width="124" height="5" rx="3" fill="#94a3b8" opacity="0.5"/>
</svg>
